<svg width="24" height="24" viewBox="0 0 24 24" fill="none" xmlns="http://www.w3.org/2000/svg">
  <path d="M12 2C11.4477 2 11 2.44772 11 3V17H8C7.44772 17 7 17.4477 7 18V19C7 19.5523 7.44772 20 8 20H12C12.5523 20 13 19.5523 13 19V3C13 2.44772 12.5523 2 12 2Z" fill="#6DBE45"/>
  <path d="M13 2V20C13 20.5523 12.5523 21 12 21H4C3.44772 21 3 20.5523 3 20V6C3 5.44772 3.44772 5 4 5H12C12.5523 5 13 5.44772 13 6V2Z" fill="#A8DAB5"/>
  <path d="M20 2H16C15.4477 2 15 2.44772 15 3V20C15 20.5523 15.4477 21 16 21H20C20.5523 21 21 20.5523 21 20V3C21 2.44772 20.5523 2 20 2Z" fill="#6DBE45"/>
  <path d="M19 20H17V3H19V20Z" fill="#A8DAB5"/>
</svg>
