<svg width="24" height="24" viewBox="0 0 24 24" fill="none" xmlns="http://www.w3.org/2000/svg">
  <path d="M4 2C3.20435 2 2.44129 2.31607 1.87868 2.87868C1.31607 3.44129 1 4.20435 1 5V19C1 19.7956 1.31607 20.5587 1.87868 21.1213C2.44129 21.6839 3.20435 22 4 22H18C18.7956 22 19.5587 21.6839 20.1213 21.1213C20.6839 20.5587 21 19.7956 21 19V5C21 4.20435 20.6839 3.44129 20.1213 2.87868C19.5587 2.31607 18.7956 2 18 2H4Z" fill="#B2B1FF"/>
  <path d="M4 0C3.73478 0 3.48043 0.105357 3.29289 0.292893L2.70711 0.87868C2.31607 1.31607 2 1.20435 2 2V22C2 22.7956 2.31607 23.5587 2.87868 24.1213C3.44129 24.6839 4.20435 25 5 25H19C19.7956 25 20.5587 24.6839 21.1213 24.1213C21.6839 23.5587 22 22.7956 22 22V5C22 4.20435 21.6839 3.44129 21.1213 2.87868C20.5587 2.31607 19.7956 2 19 2H4Z" fill="#6563FF"/>
</svg>
